<svg width="58" height="58" viewBox="0 0 58 58" fill="none" xmlns="http://www.w3.org/2000/svg">
<path d="M18.721 36.975L14.2753 11.3535L55.6322 16.9389L50.605 35.3728C50.3469 36.3153 49.4856 36.975 48.5069 36.975H18.721Z" fill="#BAE0BD"/>
<path d="M15.1583 12.2047L54.7157 17.5465L49.9061 35.1814C49.735 35.8107 49.1593 36.2501 48.5068 36.2501H19.3299L15.1583 12.2047ZM13.3907 10.5024L18.1105 37.7001H48.5068C49.8147 37.7001 50.9602 36.8243 51.3053 35.5628L56.55 16.3314L13.3907 10.5024Z" fill="#5E9C76"/>
<path d="M4.35 2.17505H7.42255C10.4574 2.17505 13.0514 4.3573 13.572 7.3472L20.0941 44.8529C20.6146 47.8428 23.2087 50.025 26.2436 50.025H50.75" stroke="#66798F" stroke-miterlimit="10"/>
<path d="M4.35 2.17505C3.77316 2.17505 3.21994 2.4042 2.81205 2.81209C2.40415 3.21998 2.175 3.7732 2.175 4.35005C2.175 4.92689 2.40415 5.48011 2.81205 5.88801C3.21994 6.2959 3.77316 6.52505 4.35 6.52505C4.92685 6.52505 5.48007 6.2959 5.88796 5.88801C6.29585 5.48011 6.525 4.92689 6.525 4.35005C6.525 3.7732 6.29585 3.21998 5.88796 2.81209C5.48007 2.4042 4.92685 2.17505 4.35 2.17505Z" fill="#BAE0BD"/>
<path d="M4.35 2.89995C5.14895 2.89995 5.8 3.551 5.8 4.34995C5.8 5.1489 5.14895 5.79995 4.35 5.79995C3.55105 5.79995 2.9 5.1489 2.9 4.34995C2.9 3.551 3.55105 2.89995 4.35 2.89995ZM4.35 1.44995C2.74775 1.44995 1.45 2.7477 1.45 4.34995C1.45 5.9522 2.74775 7.24995 4.35 7.24995C5.95225 7.24995 7.25 5.9522 7.25 4.34995C7.25 2.7477 5.95225 1.44995 4.35 1.44995Z" fill="#5E9C76"/>
<path d="M45.675 50.025C44.9059 50.025 44.1682 50.3306 43.6244 50.8744C43.0805 51.4183 42.775 52.1559 42.775 52.925C42.775 53.6942 43.0805 54.4318 43.6244 54.9756C44.1682 55.5195 44.9059 55.825 45.675 55.825C46.4441 55.825 47.1818 55.5195 47.7256 54.9756C48.2695 54.4318 48.575 53.6942 48.575 52.925C48.575 52.1559 48.2695 51.4183 47.7256 50.8744C47.1818 50.3306 46.4441 50.025 45.675 50.025Z" fill="#B0C1D4"/>
<path d="M45.675 50.75C46.8742 50.75 47.85 51.7259 47.85 52.925C47.85 54.1242 46.8742 55.1 45.675 55.1C44.4759 55.1 43.5 54.1242 43.5 52.925C43.5 51.7259 44.4759 50.75 45.675 50.75ZM45.675 49.3C43.6726 49.3 42.05 50.9226 42.05 52.925C42.05 54.9275 43.6726 56.55 45.675 56.55C47.6775 56.55 49.3 54.9275 49.3 52.925C49.3 50.9226 47.6775 49.3 45.675 49.3Z" fill="#66798F"/>
<path d="M26.825 50.025C26.0559 50.025 25.3182 50.3306 24.7744 50.8744C24.2305 51.4183 23.925 52.1559 23.925 52.925C23.925 53.6942 24.2305 54.4318 24.7744 54.9756C25.3182 55.5195 26.0559 55.825 26.825 55.825C27.5941 55.825 28.3318 55.5195 28.8756 54.9756C29.4195 54.4318 29.725 53.6942 29.725 52.925C29.725 52.1559 29.4195 51.4183 28.8756 50.8744C28.3318 50.3306 27.5941 50.025 26.825 50.025Z" fill="#B0C1D4"/>
<path d="M26.825 50.75C28.0241 50.75 29 51.7259 29 52.925C29 54.1242 28.0241 55.1 26.825 55.1C25.6258 55.1 24.65 54.1242 24.65 52.925C24.65 51.7259 25.6258 50.75 26.825 50.75ZM26.825 49.3C24.8225 49.3 23.2 50.9226 23.2 52.925C23.2 54.9275 24.8225 56.55 26.825 56.55C28.8274 56.55 30.45 54.9275 30.45 52.925C30.45 50.9226 28.8274 49.3 26.825 49.3Z" fill="#66798F"/>
<path d="M26.825 31.9V20.3V31.9ZM32.625 31.9V20.3V31.9ZM38.425 31.9V20.3V31.9ZM44.225 31.9V20.3V31.9Z" fill="#BAE0BD"/>
<path d="M26.825 31.9V20.3M32.625 31.9V20.3M38.425 31.9V20.3M44.225 31.9V20.3" stroke="#5E9C76" stroke-miterlimit="10"/>
</svg>
